<svg xmlns="http://www.w3.org/2000/svg" version="1.1" xmlns:xlink="http://www.w3.org/1999/xlink" xmlns:svgjs="http://svgjs.dev/svgjs" width="100%" height="100%" viewBox="0 0 1000 600"><rect width="1000" height="600" x="0" y="0" fill="#9003f8"/><g><rect width="333.3333333333333" height="333.3333333333333" y="251.11904464646156" fill="#fe7900" transform="matrix(0.5460976882843674,0,0,0.5460976882843674,0,71.84821140813837)" x="228.8967742919922"/><path d="M425.6470103814552 492.7857177953926L365.4798774529129 492.7857177953926L365.4798774529129 477.743934563257L386.5503119011028 477.743934563257L386.5503119011028 357.82749601817625L365.4798774529129 357.82749601817625L365.4798774529129 342.7857127860407L425.6470103814552 342.7857127860407L425.6470103814552 357.82749601817625L404.5765759332653 357.82749601817625L404.5765759332653 477.743934563257L425.6470103814552 477.743934563257L425.6470103814552 492.7857177953926Z " fill="#ffffff" transform="matrix(0.5460976882843674,0,0,0.5460976882843674,0,71.84821140813837)"/><path d="M701.418633125124 490.4030045887611L645.5634422479296 490.4030045887611L645.5634422479296 476.43920686946257L665.12384143409 476.43920686946257L665.12384143409 365.1167083850543L645.5634422479296 365.1167083850543L645.5634422479296 351.1529106657557L701.418633125124 351.1529106657557L701.418633125124 365.1167083850543L681.8582339389636 365.1167083850543L681.8582339389636 476.43920686946257L701.418633125124 476.43920686946257L701.418633125124 490.4030045887611ZM746.302268651441 490.4030045887611L730.3436426865283 490.4030045887611L730.3436426865283 387.47540830464555L746.302268651441 387.47540830464555L746.302268651441 404.237506757375L747.1057411392577 404.237506757375Q750.9014559954956 395.45472128710185 757.7725310637219 390.2737090380764Q764.6436061319482 385.0649908411952 776.2246923356522 385.0649908411952L776.2246923356522 385.0649908411952Q792.1833183005649 385.0649908411952 801.4648108322415 395.34389749567885Q810.7463033639181 405.62280415016255 810.7463033639181 424.3797308485061L810.7463033639181 424.3797308485061L810.7463033639181 490.4030045887611L794.7876773990055 490.4030045887611L794.7876773990055 427.178031581937Q794.7876773990055 399.44437777833 771.4315633566073 399.44437777833L771.4315633566073 399.44437777833Q766.6384343775622 399.44437777833 762.1500708249306 400.63573353612736Q757.6617072722988 401.82708929392464 754.087639998907 404.237506757375Q750.4858667776593 406.6202182729696 748.407920688478 410.3051093377845Q746.302268651441 413.9900004025994 746.302268651441 418.9770710166346L746.302268651441 418.9770710166346L746.302268651441 490.4030045887611ZM874.5808072235689 492.78571610435574L874.5808072235689 492.78571610435574Q860.201420286434 492.78571610435574 850.5320444847769 487.299938428917Q840.8626686831196 481.8141607534783 833.8807698234704 472.64349201322466L833.8807698234704 472.64349201322466L845.2402084443283 463.47282327297097Q851.2246931811706 471.0642529854468 858.6221812586562 475.1370273202422Q865.991963388286 479.23750760289346 875.7721629813661 479.23750760289346L875.7721629813661 479.23750760289346Q885.9402458444268 479.23750760289346 891.6199651548558 474.83226189382896Q897.2996844652848 470.4547221326203 897.2996844652848 462.47540915016396L897.2996844652848 462.47540915016396Q897.2996844652848 456.4909244133217 893.4208517654797 452.19650249568025Q889.5420190656745 447.9020805780388 879.3462302547581 446.32284155026105L879.3462302547581 446.32284155026105L871.1729756373114 445.1314857924637Q863.9971351426718 444.1340716696567 858.0126504058296 442.0284196326196Q852.0281656689874 439.9227675955825 847.5398021163556 436.4318181657578Q843.051438563724 432.94086873593324 840.5579032567064 427.7598564869077Q838.0643679496887 422.57884423788227 838.0643679496887 415.4030037432427L838.0643679496887 415.4030037432427Q838.0643679496887 407.8115740307669 840.8626686831196 402.1318547203379Q843.6609694165504 396.4521354099089 848.5372162391627 392.656420553671Q853.413463061775 388.8607056974331 860.201420286434 386.976701243242Q866.9893775110929 385.0649908411952 874.7747488585591 385.0649908411952L874.7747488585591 385.0649908411952Q887.3255432372143 385.0649908411952 895.8035632810743 389.4702365502596Q904.2815833249341 393.8477763114683 910.6816572796126 401.6331476589344L910.6816572796126 401.6331476589344L900.0979851987156 411.2194056170243Q896.7178595603141 406.42627663797936 890.1238439706452 402.51973799031845Q883.5575343288322 398.6409052905133 873.5833931007618 398.6409052905133L873.5833931007618 398.6409052905133Q863.6092518726914 398.6409052905133 858.5113574672332 402.93532720815466Q853.413463061775 407.2297491257961 853.413463061775 414.5995312554259L853.413463061775 414.5995312554259Q853.413463061775 422.19096096790173 858.5113574672332 425.57108660630337Q863.6092518726914 428.951212244705 873.1678038829255 430.5581572203386L873.1678038829255 430.5581572203386L881.1471168653818 431.7495129781359Q898.2970985880918 434.35387207657647 905.5006450305871 441.64053636263907Q912.6764855252267 448.8994947008459 912.6764855252267 460.67452253954013L912.6764855252267 460.67452253954013Q912.6764855252267 475.63573438164576 902.508402662166 484.22457821692865Q892.3126138512496 492.78571610435574 874.5808072235689 492.78571610435574ZM982.0798849038833 490.4030045887611L962.1316024477426 490.4030045887611Q953.7644061953057 490.4030045887611 949.4699842776643 485.7206994011392Q945.1755623600228 481.0383942135173 945.1755623600228 473.44696450104146L945.1755623600228 473.44696450104146L945.1755623600228 401.4392060239441L928.219522272303 401.4392060239441L928.219522272303 387.47540830464555L937.805780230393 387.47540830464555Q942.9867924794185 387.47540830464555 944.8985028814653 385.36975626760847Q946.7825073356564 383.2918101784271 946.7825073356564 378.08309198154586L946.7825073356564 378.08309198154586L946.7825073356564 358.9382820132218L961.1341883249355 358.9382820132218L961.1341883249355 387.47540830464555L983.686829879517 387.47540830464555L983.686829879517 401.4392060239441L961.1341883249355 401.4392060239441L961.1341883249355 476.43920686946257L982.0798849038833 476.43920686946257L982.0798849038833 490.4030045887611ZM1093.2084417533013 490.4030045887611L1084.231714648038 490.4030045887611Q1075.2549875427744 490.4030045887611 1071.3484488951137 485.6098756097162Q1067.4696161953086 480.8167466306713 1066.4722020725017 473.6409061360317L1066.4722020725017 473.6409061360317L1065.4747879496945 473.6409061360317Q1062.0946623112927 483.2271640941216 1054.3092909638267 488.02029307316656Q1046.5239196163607 492.78571610435574 1035.7463059004735 492.78571610435574L1035.7463059004735 492.78571610435574Q1019.3997966655802 492.78571610435574 1010.3122457688938 484.4185198519189Q1001.2524008200633 476.05132359948203 1001.2524008200633 461.67193666234715L1001.2524008200633 461.67193666234715Q1001.2524008200633 447.1263140380778 1011.9191907445274 439.3409426906117Q1022.5859806689916 431.5555713431457 1045.138622223573 431.5555713431457L1045.138622223573 431.5555713431457L1065.4747879496945 431.5555713431457L1065.4747879496945 421.387488480085Q1065.4747879496945 410.41593312920753 1059.4903032128523 404.62539002735554Q1053.50581847601 398.83484692550354 1041.1489657323448 398.83484692550354L1041.1489657323448 398.83484692550354Q1031.7566494092453 398.83484692550354 1025.4673992459898 403.0184450517219Q1019.20585503059 407.2297491257961 1014.9945509565157 414.2116479854454L1014.9945509565157 414.2116479854454L1005.4359989462816 405.234920880182Q1009.6195970725 396.8400186798894 1018.7902658127537 390.9663577344702Q1027.9609345530073 385.0649908411952 1041.9247322723058 385.0649908411952L1041.9247322723058 385.0649908411952Q1060.6816589706496 385.0649908411952 1071.071389416556 394.26336552930456Q1081.4334139146072 403.4340342695582 1081.4334139146072 419.7805435044514L1081.4334139146072 419.7805435044514L1081.4334139146072 476.43920686946257L1093.2084417533013 476.43920686946257L1093.2084417533013 490.4030045887611ZM1038.350664998914 479.23750760289346L1038.350664998914 479.23750760289346Q1044.3351497357562 479.23750760289346 1049.3222203497915 477.8245042622501Q1054.3092909638267 476.43920686946257 1057.8833582372185 473.8348477710219Q1061.4851314584662 471.2581946204371 1063.4799597040803 467.8503630341797Q1065.4747879496945 464.47023739577804 1065.4747879496945 460.48058090454987L1065.4747879496945 460.48058090454987L1065.4747879496945 443.52454081683015L1044.3351497357562 443.52454081683015Q1030.565293651448 443.52454081683015 1024.2760434881925 447.5141973080583Q1017.986793324937 451.5038537992865 1017.986793324937 459.0952835117623L1017.986793324937 459.0952835117623L1017.986793324937 463.27888163798076Q1017.986793324937 470.8426054026008 1023.4725710003756 475.05390947667496Q1028.9583486758142 479.23750760289346 1038.350664998914 479.23750760289346ZM1166.6014976231863 492.78571610435574L1166.6014976231863 492.78571610435574Q1140.0869055252324 492.78571610435574 1125.319635318117 474.7491440502617Q1110.5523651110016 456.68486604831196 1110.5523651110016 421.5814301150752L1110.5523651110016 421.5814301150752Q1110.5523651110016 386.4779941818385 1125.319635318117 367.61024369207195Q1140.0869055252324 348.77019915016115 1166.6014976231863 348.77019915016115L1166.6014976231863 348.77019915016115Q1184.1670685637323 348.77019915016115 1196.025214245994 356.7495121326175Q1207.911065876111 364.72882511507385 1214.4773755179244 379.30215368719894L1214.4773755179244 379.30215368719894L1200.929167016462 387.47540830464555Q1196.7455688902435 376.6977945887583 1188.1567250549606 370.2146027905126Q1179.567881219678 363.7314109922668 1166.6014976231863 363.7314109922668L1166.6014976231863 363.7314109922668Q1157.6247705179228 363.7314109922668 1150.5597538147063 367.1115366306684Q1143.4670311636341 370.51936821692584 1138.5907843410218 376.8086183801813Q1133.6868315705537 383.0701625955811 1131.1101784199689 391.76983022228694Q1128.5058193215284 400.4417919011371 1128.5058193215284 411.2194056170243L1128.5058193215284 411.2194056170243L1128.5058193215284 431.94345461312616Q1128.5058193215284 453.4986820449006 1138.4799605495987 465.6615931535753Q1148.4541017776692 477.8245042622501 1166.6014976231863 477.8245042622501L1166.6014976231863 477.8245042622501Q1179.983470437514 477.8245042622501 1188.9601975427772 470.95342919402384Q1197.9369246480408 464.0823541257975 1202.1205227742591 452.6952095570838L1202.1205227742591 452.6952095570838L1215.4747896407312 461.0901117573764Q1208.9084799989182 475.82967601663603 1196.5239213073976 484.30769606049586Q1184.1670685637323 492.78571610435574 1166.6014976231863 492.78571610435574ZM1270.9420972479452 490.4030045887611L1256.7843578936563 490.4030045887611Q1248.3894556933637 490.4030045887611 1244.122739723578 485.7206994011392Q1239.8283178059364 481.0383942135173 1239.8283178059364 473.8348477710219L1239.8283178059364 473.8348477710219L1239.8283178059364 342.7857144133189L1255.7869437708491 342.7857144133189L1255.7869437708491 476.43920686946257L1270.9420972479452 476.43920686946257L1270.9420972479452 490.4030045887611ZM1332.9757144969722 492.78571610435574L1332.9757144969722 492.78571610435574Q1322.613689998921 492.78571610435574 1314.0248461636384 489.01770719597357Q1305.463708276211 485.22199233973566 1299.368399747946 478.1292696886634Q1293.2730912196805 471.0642529854468 1289.892965581279 461.17322960094367Q1286.5128399428772 451.30991216429624 1286.5128399428772 438.92535347277544L1286.5128399428772 438.92535347277544Q1286.5128399428772 426.7624423641007 1289.892965581279 416.78830113603027Q1293.2730912196805 406.81415990795983 1299.368399747946 399.7491432047433Q1305.463708276211 392.656420553671 1314.0248461636384 388.8607056974331Q1322.613689998921 385.0649908411952 1332.9757144969722 385.0649908411952L1332.9757144969722 385.0649908411952Q1343.3654449428786 385.0649908411952 1351.8434649867386 388.8607056974331Q1360.3214850305985 392.656420553671 1366.4999114024308 399.7491432047433Q1372.6783377742636 406.81415990795983 1376.058463412665 416.78830113603027Q1379.4662949989224 426.7624423641007 1379.4662949989224 438.92535347277544L1379.4662949989224 438.92535347277544Q1379.4662949989224 451.30991216429624 1376.058463412665 461.17322960094367Q1372.6783377742636 471.0642529854468 1366.4999114024308 478.1292696886634Q1360.3214850305985 485.22199233973566 1351.8434649867386 489.01770719597357Q1343.3654449428786 492.78571610435574 1332.9757144969722 492.78571610435574ZM1332.9757144969722 478.6279767500669L1332.9757144969722 478.6279767500669Q1345.9420980934638 478.6279767500669 1354.1153527109102 470.64866376761057Q1362.3163132762124 462.6693507851542 1362.3163132762124 446.32284155026105L1362.3163132762124 446.32284155026105L1362.3163132762124 431.5555713431457Q1362.3163132762124 415.20906210825245 1354.1153527109102 407.2297491257961Q1345.9420980934638 399.25043614333975 1332.9757144969722 399.25043614333975L1332.9757144969722 399.25043614333975Q1320.0093309004806 399.25043614333975 1311.836076283034 407.2297491257961Q1303.6628216655872 415.20906210825245 1303.6628216655872 431.5555713431457L1303.6628216655872 431.5555713431457L1303.6628216655872 446.32284155026105Q1303.6628216655872 462.6693507851542 1311.836076283034 470.64866376761057Q1320.0093309004806 478.6279767500669 1332.9757144969722 478.6279767500669ZM1421.7455714267987 490.4030045887611L1405.7869454618858 490.4030045887611L1405.7869454618858 387.47540830464555L1421.7455714267987 387.47540830464555L1421.7455714267987 404.237506757375L1422.5490439146156 404.237506757375Q1426.3447587708533 395.45472128710185 1433.2158338390798 390.2737090380764Q1440.114614855162 385.0649908411952 1451.66799511101 385.0649908411952L1451.66799511101 385.0649908411952Q1467.6266210759227 385.0649908411952 1476.9081136075993 395.34389749567885Q1486.189606139276 405.62280415016255 1486.189606139276 424.3797308485061L1486.189606139276 424.3797308485061L1486.189606139276 490.4030045887611L1470.2309801743634 490.4030045887611L1470.2309801743634 427.178031581937Q1470.2309801743634 399.44437777833 1446.874866131965 399.44437777833L1446.874866131965 399.44437777833Q1442.109443100776 399.44437777833 1437.6210795481443 400.63573353612736Q1433.1327159955124 401.82708929392464 1429.5309427742648 404.237506757375Q1425.9291695530171 406.6202182729696 1423.851223463836 410.3051093377845Q1421.7455714267987 413.9900004025994 1421.7455714267987 418.9770710166346L1421.7455714267987 418.9770710166346L1421.7455714267987 490.4030045887611ZM1557.8094813463927 492.78571610435574L1557.8094813463927 492.78571610435574Q1547.2258092654956 492.78571610435574 1538.7477892216361 489.01770719597357Q1530.2697691777762 485.22199233973566 1524.1744606495108 478.1292696886634Q1518.1068580691012 471.0642529854468 1514.8098502742669 461.17322960094367Q1511.5128424794325 451.30991216429624 1511.5128424794325 438.92535347277544L1511.5128424794325 438.92535347277544Q1511.5128424794325 426.7624423641007 1514.8098502742669 416.78830113603027Q1518.1068580691012 406.81415990795983 1524.1744606495108 399.7491432047433Q1530.2697691777762 392.656420553671 1538.7477892216361 388.8607056974331Q1547.2258092654956 385.0649908411952 1557.8094813463927 385.0649908411952L1557.8094813463927 385.0649908411952Q1568.1715058444438 385.0649908411952 1576.3447604618902 388.8607056974331Q1584.518015079337 392.656420553671 1590.3085581811888 399.333553986907Q1596.099101283041 406.0106874201431 1599.202167442885 415.20906210825245Q1602.2775276548732 424.3797308485061 1602.2775276548732 435.35128619938354L1602.2775276548732 435.35128619938354L1602.2775276548732 442.9150099640036L1528.274940932162 442.9150099640036L1528.274940932162 447.7081389430486Q1528.274940932162 454.30215453271734 1530.3805929691994 459.98187384314633Q1532.4585390583804 465.6615931535753 1536.3650777060413 469.84519127979377Q1540.2439104058467 474.05649535386794 1545.9236297162756 476.43920686946257Q1551.6033490267046 478.82191838505713 1558.8068954691998 478.82191838505713L1558.8068954691998 478.82191838505713Q1568.559389114424 478.82191838505713 1575.8460534004867 474.2504369888582Q1583.1327176865493 469.6512496448035 1587.1223741777776 461.0901117573764L1587.1223741777776 461.0901117573764L1598.4818127986355 469.26336637482297Q1593.4947421846002 479.8193325078642 1582.938776051559 486.30252430611Q1572.3551039706622 492.78571610435574 1557.8094813463927 492.78571610435574ZM1557.8094813463927 398.446963655523L1557.8094813463927 398.446963655523Q1551.215465756724 398.446963655523 1545.8405118727082 400.74655732755036Q1540.4378520408368 403.0184450517219 1536.5590193410317 407.2297491257961Q1532.6524806933708 411.41334725201455 1530.4637108127663 417.09306656244354Q1528.274940932162 422.77278587287253 1528.274940932162 429.56074309753154L1528.274940932162 429.56074309753154L1528.274940932162 430.94604049031915L1585.1275459321635 430.94604049031915L1585.1275459321635 428.7572706097148Q1585.1275459321635 414.98741452540645 1577.6469400111107 406.7310420643926Q1570.1663340900577 398.446963655523 1557.8094813463927 398.446963655523Z " fill="#fe007a" transform="matrix(0.5460976882843674,0,0,0.5460976882843674,0,71.84821140813837)"/></g></svg>